<svg width="70" height="70" viewBox="0 0 70 70" fill="none" xmlns="http://www.w3.org/2000/svg">
<path d="M26.25 35.0001L32.0833 40.8334L43.75 29.1667M61.25 35.0001C61.25 38.4473 60.571 41.8607 59.2518 45.0455C57.9327 48.2303 55.9991 51.1241 53.5616 53.5616C51.124 55.9992 48.2302 57.9327 45.0454 59.2519C41.8606 60.5711 38.4472 61.2501 35 61.2501C31.5528 61.2501 28.1394 60.5711 24.9546 59.2519C21.7698 57.9327 18.876 55.9992 16.4384 53.5616C14.0009 51.1241 12.0673 48.2303 10.7482 45.0455C9.42898 41.8607 8.75 38.4473 8.75 35.0001C8.75 28.0381 11.5156 21.3613 16.4384 16.4385C21.3613 11.5157 28.0381 8.75006 35 8.75006C41.9619 8.75006 48.6387 11.5157 53.5616 16.4385C58.4844 21.3613 61.25 28.0381 61.25 35.0001Z" stroke="#FCFEFF" stroke-width="3" stroke-linecap="round" stroke-linejoin="round"/>
</svg>
