<svg width="2890" height="1396" viewBox="0 0 2890 1396" fill="none" xmlns="http://www.w3.org/2000/svg">
<path d="M578.835 1271.04C360.314 1279.87 0 1396 0 1396H2890V6.64356C2890 6.64356 2761.98 -8.30445 2682.79 6.64356C2604.41 21.4402 2560.96 39.8035 2494.88 80.4413C2444.57 111.378 2407.59 126.531 2379.95 175.324C2358.32 213.523 2380.98 246.24 2356.46 283.009C2331.58 320.328 2298.67 326.843 2259.99 353.041C2201.24 392.837 2150.68 396.882 2103.95 447.924C2038.78 519.11 2089.59 598.949 2030.97 674.589C1965.23 759.424 1876.42 758.017 1786.85 822.938C1685.19 896.618 1852.98 964.612 1786.85 1065.77C1750.6 1121.22 1578.12 1109.54 1506.81 1170.84C1399.15 1263.38 1221.9 1177.72 1076.65 1207.81C980.916 1227.64 950.71 1253.29 854.471 1271.04C741.834 1291.82 693.71 1266.4 578.835 1271.04Z" fill="url(#paint0_radial_2_99)"/>
<path d="M578.835 1271.04C360.314 1279.87 0 1396 0 1396H2890V6.64356C2890 6.64356 2761.98 -8.30445 2682.79 6.64356C2604.41 21.4402 2560.96 39.8035 2494.88 80.4413C2444.57 111.378 2407.59 126.531 2379.95 175.324C2358.32 213.523 2380.98 246.24 2356.46 283.009C2331.58 320.328 2298.67 326.843 2259.99 353.041C2201.24 392.837 2150.68 396.882 2103.95 447.924C2038.78 519.11 2089.59 598.949 2030.97 674.589C1965.23 759.424 1876.42 758.017 1786.85 822.938C1685.19 896.618 1852.98 964.612 1786.85 1065.77C1750.6 1121.22 1578.12 1109.54 1506.81 1170.84C1399.15 1263.38 1221.9 1177.72 1076.65 1207.81C980.916 1227.64 950.71 1253.29 854.471 1271.04C741.834 1291.82 693.71 1266.4 578.835 1271.04Z" fill="black" fill-opacity="0.2"/>
<defs>
<radialGradient id="paint0_radial_2_99" cx="0" cy="0" r="1" gradientUnits="userSpaceOnUse" gradientTransform="translate(2964.34 -17.9549) rotate(137.058) scale(2075.49 3841.33)">
<stop stop-color="#7E57C2" stop-opacity="0.96"/>
<stop offset="0.437076" stop-color="#385984"/>
</radialGradient>
</defs>
</svg>
