<svg width="24" height="29" viewBox="0 0 24 29" fill="none" xmlns="http://www.w3.org/2000/svg">
<path d="M8 8.86707V4.1503M16 8.86707V4.1503M7 13.5838H17M5 25.3757H19C19.5304 25.3757 20.0391 25.1273 20.4142 24.685C20.7893 24.2427 21 23.6428 21 23.0174V8.86707C21 8.24159 20.7893 7.64172 20.4142 7.19944C20.0391 6.75716 19.5304 6.50869 19 6.50869H5C4.46957 6.50869 3.96086 6.75716 3.58579 7.19944C3.21071 7.64172 3 8.24159 3 8.86707V23.0174C3 23.6428 3.21071 24.2427 3.58579 24.685C3.96086 25.1273 4.46957 25.3757 5 25.3757Z" stroke="#385984" stroke-width="2" stroke-linecap="round" stroke-linejoin="round"/>
</svg>
