<svg width="24" height="29" viewBox="0 0 24 29" fill="none" xmlns="http://www.w3.org/2000/svg">
<path d="M17.657 20.2545L13.414 25.2578C13.2284 25.4768 13.0081 25.6506 12.7656 25.7691C12.523 25.8877 12.2631 25.9487 12.0005 25.9487C11.738 25.9487 11.478 25.8877 11.2354 25.7691C10.9929 25.6506 10.7726 25.4768 10.587 25.2578L6.343 20.2545C5.22422 18.9352 4.46234 17.2543 4.15369 15.4244C3.84504 13.5945 4.00349 11.6977 4.60901 9.97401C5.21452 8.25028 6.2399 6.777 7.55548 5.74045C8.87107 4.7039 10.4178 4.15065 12 4.15065C13.5822 4.15065 15.1289 4.7039 16.4445 5.74045C17.7601 6.777 18.7855 8.25028 19.391 9.97401C19.9965 11.6977 20.155 13.5945 19.8463 15.4244C19.5377 17.2543 18.7758 18.9352 17.657 20.2545V20.2545Z" stroke="#385984" stroke-width="2" stroke-linecap="round" stroke-linejoin="round"/>
<path d="M15 13.5838C15 14.5221 14.6839 15.4218 14.1213 16.0853C13.5587 16.7487 12.7956 17.1214 12 17.1214C11.2044 17.1214 10.4413 16.7487 9.87868 16.0853C9.31607 15.4218 9 14.5221 9 13.5838C9 12.6456 9.31607 11.7458 9.87868 11.0824C10.4413 10.419 11.2044 10.0463 12 10.0463C12.7956 10.0463 13.5587 10.419 14.1213 11.0824C14.6839 11.7458 15 12.6456 15 13.5838V13.5838Z" stroke="#385984" stroke-width="2" stroke-linecap="round" stroke-linejoin="round"/>
</svg>
