<svg width="70" height="70" viewBox="0 0 70 70" fill="none" xmlns="http://www.w3.org/2000/svg">
<path d="M49.5833 58.3334H64.1666V52.5C64.1665 50.6816 63.5998 48.9084 62.5454 47.4268C61.4909 45.9453 60.0011 44.8292 58.283 44.2335C56.5649 43.6378 54.7039 43.5922 52.9587 44.103C51.2134 44.6138 49.6707 45.6557 48.545 47.0838M49.5833 58.3334H20.4166M49.5833 58.3334V52.5C49.5833 50.5867 49.2158 48.7579 48.545 47.0838M20.4166 58.3334H5.83331V52.5C5.83345 50.6816 6.40013 48.9084 7.45458 47.4268C8.50903 45.9453 9.99886 44.8292 11.717 44.2335C13.4351 43.6378 15.2961 43.5922 17.0413 44.103C18.7865 44.6138 20.3292 45.6557 21.455 47.0838M20.4166 58.3334V52.5C20.4166 50.5867 20.7841 48.7579 21.455 47.0838M21.455 47.0838C22.5381 44.377 24.4074 42.0568 26.8217 40.4225C29.2359 38.7881 32.0845 37.9146 35 37.9146C37.9154 37.9146 40.764 38.7881 43.1783 40.4225C45.5926 42.0568 47.4619 44.377 48.545 47.0838M43.75 20.4167C43.75 22.7373 42.8281 24.9629 41.1872 26.6039C39.5462 28.2448 37.3206 29.1667 35 29.1667C32.6793 29.1667 30.4537 28.2448 28.8128 26.6039C27.1718 24.9629 26.25 22.7373 26.25 20.4167C26.25 18.096 27.1718 15.8704 28.8128 14.2295C30.4537 12.5886 32.6793 11.6667 35 11.6667C37.3206 11.6667 39.5462 12.5886 41.1872 14.2295C42.8281 15.8704 43.75 18.096 43.75 20.4167V20.4167ZM61.25 29.1667C61.25 30.7138 60.6354 32.1975 59.5414 33.2915C58.4475 34.3854 56.9637 35 55.4166 35C53.8695 35 52.3858 34.3854 51.2919 33.2915C50.1979 32.1975 49.5833 30.7138 49.5833 29.1667C49.5833 27.6196 50.1979 26.1359 51.2919 25.0419C52.3858 23.9479 53.8695 23.3334 55.4166 23.3334C56.9637 23.3334 58.4475 23.9479 59.5414 25.0419C60.6354 26.1359 61.25 27.6196 61.25 29.1667ZM20.4166 29.1667C20.4166 30.7138 19.8021 32.1975 18.7081 33.2915C17.6141 34.3854 16.1304 35 14.5833 35C13.0362 35 11.5525 34.3854 10.4585 33.2915C9.36456 32.1975 8.74998 30.7138 8.74998 29.1667C8.74998 27.6196 9.36456 26.1359 10.4585 25.0419C11.5525 23.9479 13.0362 23.3334 14.5833 23.3334C16.1304 23.3334 17.6141 23.9479 18.7081 25.0419C19.8021 26.1359 20.4166 27.6196 20.4166 29.1667Z" stroke="#FAFCFF" stroke-width="3" stroke-linecap="round" stroke-linejoin="round"/>
</svg>
